<?xml version="1.0" encoding="utf-8"?>
<svg xmlns="http://www.w3.org/2000/svg" xmlns:xlink="http://www.w3.org/1999/xlink" version= "1.1" width="468px" height="335px" viewBox="218 950 468 335">
<g id="layer1">
<g style="fill:rgb(0,174,199); fill-opacity:1.0; stroke-linejoin: miter">
<path d="M209.03996,943.17865L209.04015,1289.3352L695.94214,1289.3356L695.95026,943.2365L209.03996,943.17865 Z"/>
</g>
<g style="fill:rgb(17,123,189); fill-opacity:1.0; stroke-linejoin: miter">
<path d="M343.65442,1226.2427L334.55225,1226.5027Q306.38245,1228.8784,297.12878,1231.6719Q266.61127,1240.1084,259.72412,1244.49Q233.28398,1258.7966,214.41347,1275.5066L209.0367,1281.4988L209.03871,1289.3354L695.9419,1289.3358L695.9419,1269.1383Q672.93536,1280.3446,646.6862,1284.08Q637.93646,1285.3251,628.8265,1285.7401L619.6264,1285.9476Q606.75,1285.8236,598.1845,1284.889Q575.4181,1281.9418,564.26996,1279.0887L438.0387,1242.0386Q425.4519,1238.4817,408.00153,1234.387Q390.60376,1230.6807,370.62286,1227.877Q359.6792,1226.8298,343.65442,1226.2427 Z"/>
</g>
<g style="fill:rgb(252,184,38); fill-opacity:0.5058824; stroke-linejoin: miter">
<path d="M642.38806,1051.3525L641.95874,1062.0663Q637.367,1095.171,613.42914,1114.5741Q589.68585,1134.3983,555.002,1131.8733Q526.9362,1128.937,505.53296,1106.8323Q503.05368,1104.523,498.33777,1097.4961L494.73474,1091.5818Q491.40872,1085.6349,489.19025,1079.5537Q484.75323,1067.3918,484.74658,1054.6959Q484.95236,1021.7891,506.39392,999.4769Q528.62476,976.0313,561.43854,974.6801Q592.2392,974.1541,616.2186,994.5954Q641.116,1018.03424,642.38806,1051.3525 Z"/>
</g>
<g style="fill:rgb(252,184,38); fill-opacity:1.0; stroke-linejoin: miter">
<path d="M629.932,1051.6139L629.7285,1056.2721Q628.6144,1070.6227,625.0165,1078.4723Q619.3975,1090.0366,617.9797,1091.6188Q612.80585,1098.44,607.3015,1103.432Q599.96954,1110.0245,588.64667,1115.126Q576.62823,1119.8213,561.5038,1119.6279Q535.4056,1118.5962,517.9341,1101.4946Q508.35184,1090.7151,507.43762,1088.8755Q502.95752,1081.4138,500.6001,1075.2076Q497.32922,1066.8707,497.3048,1051.787Q498.4099,1038.6154,499.5542,1036.2863Q500.88095,1031.3102,502.97702,1026.5881Q506.4157,1017.9814,515.9458,1007.0444Q538.3015,986.3809,563.63275,986.91394Q591.12775,987.593,609.6926,1005.5405Q615.4417,1011.6335,617.9072,1014.99207Q618.97217,1016.1628,625.04913,1028.3134Q629.86633,1041.7155,629.932,1051.6139 Z"/>
</g>
<g style="fill:rgb(255,255,255); fill-opacity:0.78431374; stroke-linejoin: miter">
<path d="M655.52826,1032.7971C655.79956,1031.8705,655.9407,1030.9115,655.948,1029.9375C655.9916,1024.1763,651.34015,1019.4549,645.5795,1019.41095C643.18286,1019.3926,640.8353,1020.2069,638.9696,1021.7042C637.31024,1023.0355,636.0908,1024.8533,635.4872,1026.8759C631.6351,1026.4862,628.1311,1028.9062,627.01526,1032.4684C626.4326,1032.3309,625.83685,1032.2592,625.2355,1032.2548C620.8018,1032.2211,617.16785,1035.7753,617.13403,1040.2086C617.10046,1044.6427,620.6802,1048.2506,625.1139,1048.284L653.1858,1048.4968C657.6193,1048.5306,661.25323,1044.9767,661.28705,1040.5426C661.31433,1036.9156,658.93726,1033.7977,655.52826,1032.7971 Z"/>
</g>
<g style="fill:rgb(255,255,255); fill-opacity:0.78431374; stroke-linejoin: miter">
<path d="M484.0944,1073.5311C483.8341,1072.6016,483.70422,1071.6411,483.7083,1070.6669C483.73267,1064.9056,488.4394,1060.239,494.2002,1060.263C496.5971,1060.2728,498.93488,1061.1146,500.78265,1062.6339C502.42642,1063.9845,503.62433,1065.8163,504.20404,1067.8463C508.0605,1067.5022,511.5358,1069.9628,512.6096,1073.538C513.1939,1073.4076,513.7905,1073.3427,514.39185,1073.3457C518.82556,1073.3641,522.4176,1076.9606,522.3991,1081.3942C522.3805,1085.8282,518.75854,1089.3938,514.32465,1089.3755L486.2518,1089.2578C481.81808,1089.2394,478.22632,1085.6427,478.24475,1081.2086C478.26,1077.5809,480.6739,1074.4916,484.0944,1073.5311 Z"/>
</g>
<g style="fill:rgb(132,205,250); fill-opacity:1.0; stroke-linejoin: miter">
<path d="M351.07336,1264.7751L348.04297,1264.7983Q299.74115,1265.9905,260.04224,1289.3359L478.76947,1289.3358Q433.23993,1276.2339,414.599,1272.0054Q390.0492,1267.6282,379.12396,1266.4805Q363.50433,1264.7361,351.07336,1264.7751 Z"/>
</g>
<g style="fill:rgb(17,123,189); fill-opacity:1.0; stroke-linejoin: miter">
<path d="M428.05914,1120.946L419.81635,1121.47Q383.5824,1125.272,360.48962,1148.167Q351.43536,1157.009,339.9522,1174.8542Q337.40155,1177.7195,304.9402,1240.3701Q294.27002,1257.3088,291.91144,1259.9536Q278.47363,1278.3889,246.9616,1289.335L395.78577,1289.3359Q386.56952,1237.7253,389.5904,1222.1675Q390.66833,1205.468,403.56995,1185.3611Q409.05713,1176.4121,425.13837,1164.404Q434.58527,1158.2393,445.34326,1155.6229Q455.92834,1154.2677,462.49365,1156.245Q472.4997,1158.5145,489.52057,1169.278Q485.47064,1151.1227,465.98566,1131.7384Q449.82367,1120.2333,428.05914,1120.946 Z"/>
</g>
<g style="fill:rgb(132,205,250); fill-opacity:1.0; stroke-linejoin: miter">
<path d="M436.10248,1137.0969L430.6494,1137.4502Q425.7964,1137.3967,406.9879,1142.3391Q399.7829,1144.6199,393.48724,1147.7693Q381.8125,1153.1011,370.1101,1165.7742Q362.6596,1173.8406,353.2937,1187.2051L308.46704,1268.0938Q301.43616,1278.6558,289.2516,1289.3347L395.7616,1289.3359Q388.95074,1256.5518,389.91064,1223.0969Q390.66803,1212.6362,394.15424,1202.7861Q401.19318,1185.7583,407.13367,1179.1152Q411.21655,1172.02,425.49512,1162.8208Q434.0276,1158.1418,444.46063,1156.4052Q451.8025,1156.1957,463.27026,1154.6866Q465.54993,1154.5372,469.4613,1155.2789Q476.6825,1156.722,489.46857,1165.4684Q488.8932,1164.7567,493.46545,1166.473Q488.82288,1160.024,483.41095,1154.9906Q469.20782,1143.6456,465.44397,1143.0753Q452.312,1137.2548,436.10248,1137.0969 Z"/>
</g>
<g style="fill:rgb(91,146,180); fill-opacity:1.0; stroke-linejoin: miter">
<path d="M487.2657,1165.2574L487.99634,1165.8204Q490.84796,1168.0114,492.39972,1169.1083Q492.86072,1169.4169,492.3438,1168.9938Q491.82532,1168.5646,490.44946,1167.4987Q488.61218,1166.1102,487.2657,1165.2574"/>
</g>
<g style="fill:rgb(91,146,180); fill-opacity:1.0; stroke-linejoin: miter">
<path d="M448.86945,1154.3981L443.41626,1154.7516Q426.75623,1156.1985,412.88342,1162.0249Q405.94708,1164.9385,399.70752,1168.9465Q384.71844,1179.9255,382.55676,1183.4353Q375.0454,1191.666,366.06073,1204.5063L326.3072,1277.1938Q321.2782,1285.6477,318.4757,1289.3347L405.67938,1289.3359Q400.82062,1254.7642,402.75232,1239.7693Q404.55035,1228.0359,407.8354,1217.6345Q413.07343,1205.333,419.84753,1196.3784Q427.46967,1186.313,438.51324,1180.085Q448.44098,1173.4584,466.51172,1172.7924L467.903,1171.8375L472.00653,1167.3969Q474.0832,1166.9022,476.20007,1168.0582Q479.93976,1169.7301,487.15692,1174.7467L487.24152,1174.5568Q486.83368,1173.028,475.74432,1159.2682Q480.55225,1161.1517,487.23895,1165.2369Q476.5965,1156.724,475.32117,1156.3536Q472.6905,1155.0216,475.73914,1159.2616Q469.92377,1155.8922,448.86945,1154.3981 Z"/>
</g>
<g style="fill:rgb(255,255,255); fill-opacity:1.0; stroke-linejoin: miter">
<path d="M500.29004,1163.4926C499.9709,1163.0155,499.5149,1162.703,498.77826,1162.5634C497.52185,1162.3248,496.7173,1163.0912,496.0078,1163.7411C495.32532,1164.3673,494.4193,1165.349,493.44293,1165.3895L493.31805,1165.2438C492.32227,1163.7938,494.2364,1162.8309,495.72925,1162.4857C496.63556,1162.2762,498.5965,1162.0756,498.81476,1160.9249C498.93268,1160.3043,498.50317,1159.424,497.97278,1159.1962C497.302,1158.9081,496.65314,1159.4569,496.18787,1159.7745C495.55255,1160.2079,495.27002,1160.4786,494.70917,1160.9877C494.00677,1161.6246,493.6452,1162.2745,492.69733,1162.0946C491.3714,1161.8431,492.34662,1159.6085,492.5063,1158.768C490.42804,1156.7213,490.6131,1159.2555,489.28687,1159.1166C488.84192,1158.3175,491.94104,1153.4698,492.516,1152.6896C493.62463,1151.1859,496.16687,1148.8749,496.4879,1147.1844C496.6582,1146.2882,496.36218,1145.7745,495.8792,1145.5609L495.25677,1145.4425C494.8037,1145.4459,494.3026,1145.61,493.88232,1145.8961C492.42737,1146.8873,491.29395,1152.111,489.8402,1154.8522C487.31268,1159.618,486.85687,1156.7513,487.0103,1155.9423C487.24762,1154.694,489.8841,1151.1405,487.5932,1150.7057C485.83008,1150.3707,485.60034,1150.3698,485.25653,1152.1818C485.02667,1153.3917,485.93292,1154.3951,485.7373,1155.4261C485.41162,1157.1412,482.9146,1158.9457,483.08386,1151.1259C483.10773,1150.027,484.05322,1145.235,482.3852,1144.9181C481.5863,1144.7662,481.15527,1145.6188,481.02502,1146.305C480.9046,1146.9403,481.18427,1147.8737,481.31183,1148.4144C481.66504,1149.913,483.0962,1154.7802,481.60236,1155.9628C480.2953,1156.9977,480.2243,1154.316,479.99048,1153.4625C479.8114,1152.8082,479.53394,1151.8068,478.68896,1151.8251C476.8429,1151.8654,478.2578,1153.9884,477.04987,1154.683C475.7895,1155.4078,474.2804,1154.0511,474.31195,1152.0284C474.33533,1150.5321,474.9875,1148.724,473.35785,1148.4144C470.19202,1147.8134,472.00305,1152.1486,472.6021,1153.423C473.20557,1154.7062,473.81006,1156.2252,472.16858,1156.9994C470.93445,1157.5812,468.94427,1155.4696,468.69714,1154.4686C468.22803,1152.5673,468.77985,1149.1906,466.17487,1148.6959C464.56915,1148.3912,463.5639,1153.0021,464.5437,1154.9918C466.30817,1158.5756,468.76178,1156.3251,470.72998,1158.2697C471.1407,1158.6757,471.20667,1159.0223,471.08984,1159.6381C470.93427,1160.4579,469.32294,1160.2799,469.04974,1161.7184C468.81488,1162.9545,470.5321,1163.2977,470.34296,1164.2948C470.10504,1165.5472,468.40625,1165.6986,467.4253,1165.933C463.66968,1166.8287,463.69934,1165.9125,460.68414,1165.34C460.29364,1165.2657,459.80646,1165.8766,459.6178,1166.6227L459.55774,1166.9391C459.44867,1167.7994,459.77734,1168.7325,461.0896,1168.9818C464.23877,1169.5797,465.42523,1168.8004,467.95953,1167.5638C468.6654,1167.2196,469.8418,1166.4784,470.61017,1166.3785C472.89948,1166.0802,474.18915,1168.2218,471.45557,1168.6368C469.8683,1168.8776,468.031,1169.6371,468.52594,1171.6381C468.6394,1172.0968,468.81702,1172.2313,469.36444,1172.3353C470.68134,1172.5853,471.44824,1170.6742,472.78516,1170.9279C473.4959,1171.0629,474.0993,1171.9493,473.96448,1172.6603C473.5938,1174.6139,471.04803,1176.5914,472.03912,1178.2345C472.54352,1179.0704,473.80695,1179.3234,474.69122,1178.9735C475.2423,1178.7555,476.22705,1177.3529,476.38013,1176.5463C476.52454,1175.7858,476.07617,1174.8309,476.16284,1174.289C476.25183,1173.7308,477.2987,1173.1559,477.82733,1173.2562C478.74298,1173.43,478.4173,1174.191,479.66156,1174.4274C481.07306,1174.6952,481.14124,1172.6515,482.94983,1172.995C483.8714,1173.1698,483.65442,1180.0399,483.36652,1181.0194C482.79236,1182.974,485.38818,1181.5775,485.14148,1180.5004C485.0219,1179.9794,484.89026,1179.744,484.72852,1179.2736C483.99896,1177.1503,485.24634,1176.7877,485.58496,1175.0035L485.58484,1175.0035C485.75928,1174.0851,485.1775,1172.3212,486.5915,1172.5895C487.0453,1172.6754,487.68317,1173.9559,487.84253,1174.3881C488.40875,1175.9218,487.91125,1178.0104,487.9986,1179.5822C488.14917,1182.2858,490.7052,1181.9738,491.25165,1179.0958C491.45026,1178.0494,491.31262,1176.8834,491.02173,1176.141C490.346,1174.4174,488.76495,1173.8737,488.07642,1171.9244C487.9627,1171.6019,487.72992,1170.9183,487.84656,1170.5072C487.96112,1170.1031,488.59766,1169.817,489.0218,1169.8976C490.07245,1170.097,492.3814,1173.1605,493.2696,1171.5563C494.49677,1169.341,489.46185,1169.7465,489.7204,1168.3849C490.01782,1166.8182,497.5688,1167.9862,498.52124,1167.7723C499.62494,1167.524,500.2746,1166.8805,500.56885,1166.1285L500.7588,1165.1261C500.765,1164.5333,500.5949,1163.9486,500.29004,1163.4926 Z"/>
</g>
<g style="fill:rgb(255,255,255); fill-opacity:1.0; stroke-linejoin: miter">
<path d="M488.4884,1152.5621C488.1692,1152.0848,487.71326,1151.7723,486.97656,1151.6327C485.7202,1151.3942,484.9156,1152.1605,484.20618,1152.8104C483.52368,1153.4366,482.61768,1154.4186,481.64124,1154.4589L481.51636,1154.3131C480.52063,1152.8632,482.4347,1151.9003,483.9276,1151.5553C484.83386,1151.3456,486.79474,1151.1449,487.01306,1149.9943C487.13104,1149.3737,486.70148,1148.4935,486.17108,1148.2655C485.50037,1147.9774,484.85144,1148.5262,484.38617,1148.8439C483.7508,1149.2772,483.46826,1149.548,482.90747,1150.057C482.20514,1150.6942,481.8435,1151.3439,480.89557,1151.164C479.5697,1150.9122,480.54492,1148.6779,480.7046,1147.8373C478.62634,1145.7906,478.8114,1148.3248,477.48523,1148.1859C477.04016,1147.3868,480.1394,1142.5392,480.71436,1141.7589C481.823,1140.2552,484.36523,1137.9442,484.68622,1136.2538C484.85657,1135.3575,484.56042,1134.8439,484.07758,1134.6302L483.45508,1134.5121C483.00208,1134.5153,482.50092,1134.6793,482.0807,1134.9655C480.6256,1135.9567,479.4923,1141.1803,478.03857,1143.9215C475.51093,1148.6874,475.05518,1145.8209,475.20868,1145.0116C475.44586,1143.7633,478.08246,1140.2098,475.79144,1139.775C474.02832,1139.4401,473.79865,1139.4391,473.4549,1141.2511C473.2249,1142.4613,474.1313,1143.4645,473.93567,1144.4955C473.61,1146.2106,471.11298,1148.015,471.28223,1140.1952C471.30597,1139.0966,472.25146,1134.3043,470.5835,1133.9874C469.7846,1133.8358,469.35364,1134.6884,469.2234,1135.3744C469.10284,1136.0096,469.38263,1136.943,469.51007,1137.4838C469.86334,1138.9825,471.29456,1143.8497,469.80072,1145.0323C468.49365,1146.067,468.42267,1143.3854,468.18884,1142.5319C468.00964,1141.8776,467.7323,1140.8761,466.88727,1140.8944C465.0412,1140.9347,466.45618,1143.0577,465.24817,1143.7526C463.9878,1144.4772,462.4787,1143.1205,462.5102,1141.0975C462.53363,1139.6014,463.18573,1137.7933,461.55615,1137.4838C458.39026,1136.8827,460.2013,1141.2177,460.8004,1142.4921C461.40393,1143.7755,462.0083,1145.2946,460.36682,1146.0685C459.13275,1146.6505,457.14258,1144.539,456.8954,1143.5377C456.42627,1141.6366,456.9781,1138.2596,454.3731,1137.7653C452.76746,1137.4606,451.76227,1142.0714,452.74207,1144.0609C454.50653,1147.6447,456.96002,1145.3942,458.92822,1147.339C459.33893,1147.745,459.40497,1148.0914,459.28815,1148.7072C459.13257,1149.527,457.52118,1149.349,457.24805,1150.7877C457.01324,1152.0238,458.73035,1152.3671,458.54126,1153.3639C458.30334,1154.6166,456.60455,1154.7677,455.6236,1155.0021C451.86798,1155.8981,451.89758,1154.9818,448.8825,1154.4093C448.492,1154.3351,448.00476,1154.9459,447.8161,1155.692L447.7561,1156.0087C447.6469,1156.8688,447.9756,1157.8019,449.28796,1158.0511C452.437,1158.6488,453.62354,1157.8695,456.15778,1156.6329C456.8637,1156.289,458.04004,1155.5477,458.80847,1155.4476C461.09778,1155.1495,462.3874,1157.2911,459.65387,1157.7059C458.06665,1157.9467,456.22925,1158.7062,456.72424,1160.7074C456.83777,1161.1661,457.01526,1161.3007,457.56274,1161.4044C458.8797,1161.6544,459.64648,1159.7433,460.9834,1159.997C461.6942,1160.132,462.2976,1161.0187,462.16278,1161.7296C461.7921,1163.6832,459.24628,1165.6605,460.2375,1167.3036C460.74176,1168.1398,462.0052,1168.3927,462.88947,1168.0428C463.4406,1167.8248,464.4254,1166.4222,464.57843,1165.6156C464.7229,1164.8553,464.27448,1163.9003,464.36115,1163.3585C464.45013,1162.8004,465.49695,1162.2255,466.0257,1162.3258C466.94135,1162.4996,466.61566,1163.2606,467.85986,1163.4967C469.2713,1163.7645,469.3396,1161.7211,471.1482,1162.0643C472.0697,1162.2394,471.85278,1169.1095,471.56488,1170.089C470.9906,1172.0436,473.58655,1170.6469,473.33978,1169.5697C473.2202,1169.0487,473.08862,1168.8134,472.92688,1168.3429C472.19727,1166.2196,473.44458,1165.857,473.78326,1164.0729L473.78308,1164.0729C473.95764,1163.1544,473.3758,1161.3905,474.78986,1161.6588C475.2436,1161.7448,475.88147,1163.0253,476.0409,1163.4574C476.60706,1164.9911,476.10956,1167.0797,476.19696,1168.6515C476.3474,1171.3551,478.90356,1171.0431,479.45,1168.1652C479.64862,1167.1188,479.511,1165.9528,479.21997,1165.2103C478.5443,1163.4867,476.96326,1162.943,476.27472,1160.9938C476.16095,1160.6713,475.92816,1159.9877,476.04486,1159.5765C476.1595,1159.1725,476.79596,1158.8864,477.22015,1158.9669C478.2707,1159.1664,480.5797,1162.2299,481.4679,1160.6256C482.695,1158.4103,477.66016,1158.8158,477.9187,1157.4542C478.21606,1155.8878,485.7671,1157.0555,486.71954,1156.8417C487.82324,1156.5934,488.47284,1155.9498,488.7672,1155.1979L488.95703,1154.1957C488.96338,1153.6027,488.79327,1153.018,488.4884,1152.5621 Z"/>
</g>
<g style="fill:rgb(255,255,255); fill-opacity:1.0; stroke-linejoin: miter">
<path d="M484.21808,1169.5363C483.89886,1169.0592,483.44293,1168.7465,482.70624,1168.6068C481.4499,1168.3683,480.64526,1169.1346,479.9358,1169.7848C479.2533,1170.4108,478.3473,1171.3927,477.3709,1171.433L477.24603,1171.2872C476.25024,1169.8373,478.16437,1168.8746,479.65723,1168.5292C480.5636,1168.3197,482.5244,1168.119,482.7428,1166.9684C482.86072,1166.348,482.43115,1165.4674,481.90076,1165.2394C481.22998,1164.9518,480.58112,1165.5004,480.11584,1165.818C479.48047,1166.2513,479.198,1166.5223,478.63715,1167.0311C477.93475,1167.6683,477.57312,1168.318,476.6253,1168.1383C475.29938,1167.8866,476.27454,1165.652,476.43427,1164.8114C474.35602,1162.7648,474.54102,1165.299,473.2149,1165.16C472.76984,1164.361,475.86896,1159.5133,476.44397,1158.7333C477.5526,1157.2294,480.09485,1154.9183,480.4159,1153.2281C480.58618,1152.3317,480.29016,1151.818,479.8072,1151.6044L479.1847,1151.486C478.7317,1151.4891,478.2306,1151.6534,477.81036,1151.9396C476.3553,1152.931,475.22192,1158.1544,473.7682,1160.8954C471.2406,1165.6615,470.78485,1162.795,470.93835,1161.9857C471.1756,1160.7377,473.81207,1157.184,471.52118,1156.7491C469.75806,1156.4144,469.52832,1156.4132,469.18457,1158.2252C468.9546,1159.4352,469.8609,1160.4386,469.66528,1161.4696C469.33966,1163.1847,466.8426,1164.9891,467.01184,1157.1693C467.03564,1156.0704,467.9812,1151.2784,466.31317,1150.9615C465.51422,1150.8099,465.08325,1151.6625,464.953,1152.3485C464.83258,1152.9838,465.11224,1153.9171,465.2398,1154.4579C465.59302,1155.9567,467.02417,1160.8239,465.53046,1162.0065C464.22327,1163.0411,464.15228,1160.3595,463.91846,1159.5062C463.73938,1158.8517,463.46185,1157.85,462.61694,1157.8683C460.7708,1157.9086,462.1858,1160.0319,460.97778,1160.7264C459.7174,1161.4513,458.2083,1160.0946,458.23987,1158.0717C458.26337,1156.5753,458.9154,1154.7672,457.28577,1154.4579C454.11993,1153.8568,455.93097,1158.1918,456.53015,1159.4664C457.13354,1160.7496,457.73804,1162.2687,456.09656,1163.0426C454.86243,1163.6244,452.8722,1161.5128,452.62506,1160.5118C452.15594,1158.6105,452.70776,1155.2338,450.10278,1154.7391C448.49713,1154.4344,447.49188,1159.0453,448.47168,1161.0353C450.23615,1164.6188,452.6897,1162.3683,454.6579,1164.3131C455.0686,1164.7191,455.13458,1165.0658,455.01788,1165.6813C454.8623,1166.5011,453.25085,1166.3231,452.97766,1167.7618C452.74292,1168.9979,454.46002,1169.341,454.27087,1170.338C454.03296,1171.5907,452.33417,1171.7421,451.35333,1171.9762C447.59766,1172.8724,447.62726,1171.9557,444.61212,1171.3834C444.22162,1171.3092,443.73444,1171.92,443.54578,1172.6661L443.48572,1172.9828C443.3766,1173.8429,443.70532,1174.776,445.01758,1175.025C448.16675,1175.6229,449.35315,1174.8436,451.88745,1173.607C452.59332,1173.2628,453.7697,1172.5219,454.5381,1172.422C456.8274,1172.1237,458.11707,1174.265,455.38348,1174.68C453.79626,1174.9208,451.95892,1175.6803,452.45386,1177.6815C452.56738,1178.1403,452.74493,1178.2748,453.29236,1178.3785C454.6093,1178.6285,455.37616,1176.7174,456.71307,1176.9713C457.42395,1177.1061,458.02722,1177.9926,457.8924,1178.7035C457.52173,1180.6573,454.97595,1182.6346,455.9671,1184.2777C456.4715,1185.1139,457.73486,1185.3668,458.6192,1185.017C459.17023,1184.799,460.15497,1183.3961,460.30804,1182.5897C460.45245,1181.8292,460.00415,1180.8744,460.09082,1180.3324C460.17975,1179.7743,461.22662,1179.1993,461.75525,1179.2997C462.67102,1179.4735,462.3452,1180.2345,463.58948,1180.4706C465.00098,1180.7386,465.0692,1178.695,466.87787,1179.0385C467.79938,1179.2133,467.5824,1186.0836,467.29456,1187.0629C466.72034,1189.0175,469.31616,1187.621,469.06946,1186.5438C468.9499,1186.0231,468.8183,1185.7877,468.65656,1185.3173C467.92694,1183.1937,469.17432,1182.8312,469.51294,1181.047L469.51276,1181.0468C469.68726,1180.1288,469.10547,1178.3646,470.51947,1178.6329C470.97327,1178.7191,471.61115,1179.9996,471.7705,1180.4315C472.33673,1181.9652,471.8393,1184.0541,471.92657,1185.6256C472.0771,1188.3292,474.63318,1188.0172,475.17963,1185.139C475.37823,1184.0927,475.2406,1182.9269,474.9497,1182.1844C474.274,1180.4608,472.69287,1179.9171,472.0044,1177.9679C471.8907,1177.6454,471.6579,1176.9618,471.77454,1176.5507C471.8891,1176.1469,472.52563,1175.8605,472.94983,1175.941C474.00043,1176.1405,476.3094,1179.204,477.19757,1177.5997C478.42474,1175.3844,473.38983,1175.7899,473.64832,1174.4283C473.9458,1172.8617,481.49677,1174.0297,482.44922,1173.8158C483.55292,1173.5677,484.20258,1172.924,484.4969,1172.172L484.68677,1171.1698C484.693,1170.5768,484.5229,1169.9921,484.21808,1169.5363 Z"/>
</g>
<g style="fill:rgb(255,255,255); fill-opacity:1.0; stroke-linejoin: miter">
<path d="M474.79535,1153.1622C474.47614,1152.6852,474.0202,1152.3724,473.2835,1152.2328C472.02704,1151.9945,471.22253,1152.7609,470.51306,1153.4108C469.83057,1154.037,468.92456,1155.0187,467.94818,1155.059L467.8233,1154.9135C466.8275,1153.4635,468.74164,1152.5006,470.2345,1152.1554C471.14087,1151.9457,473.10168,1151.7452,473.32007,1150.5946C473.438,1149.974,473.00842,1149.0934,472.47803,1148.8656C471.80725,1148.5778,471.1584,1149.1266,470.6931,1149.4442C470.05774,1149.8776,469.77527,1150.1483,469.21442,1150.6573C468.51202,1151.2943,468.1504,1151.9442,467.2025,1151.7643C465.87665,1151.5126,466.8518,1149.2782,467.01154,1148.4376C464.9333,1146.3907,465.1183,1148.9249,463.7921,1148.7863C463.3471,1147.9869,466.44623,1143.1393,467.02124,1142.3595C468.12988,1140.8556,470.67212,1138.5446,470.99316,1136.8541C471.1634,1135.9576,470.86743,1135.4442,470.38446,1135.2306L469.76196,1135.1122C469.30896,1135.1154,468.80786,1135.2797,468.38763,1135.5656C466.93256,1136.557,465.7992,1141.7806,464.34546,1144.5216C461.81787,1149.2875,461.36206,1146.421,461.51562,1145.6117C461.7528,1144.3636,464.38934,1140.8099,462.0984,1140.3751C460.33527,1140.0402,460.10553,1140.0392,459.76178,1141.851C459.53186,1143.0614,460.4381,1144.0643,460.2425,1145.0956C459.91687,1146.8107,457.4198,1148.6149,457.58905,1140.7953C457.6129,1139.6964,458.5584,1134.9044,456.89038,1134.5875C456.0915,1134.4359,455.66046,1135.2882,455.5302,1135.9745C455.4098,1136.6097,455.68945,1137.5431,455.81702,1138.0839C456.17023,1139.5824,457.60138,1144.4496,456.10767,1145.6322C454.80048,1146.6671,454.7295,1143.9852,454.49567,1143.132C454.3166,1142.4777,454.03912,1141.4762,453.1942,1141.4945C451.34808,1141.5348,452.76306,1143.6578,451.55505,1144.3527C450.29468,1145.0773,448.78558,1143.7208,448.81714,1141.6979C448.8405,1140.2015,449.49268,1138.3934,447.86304,1138.0839C444.6972,1137.4828,446.50824,1141.818,447.10742,1143.0924C447.71075,1144.3759,448.3153,1145.8949,446.67377,1146.6686C445.4397,1147.2506,443.44946,1145.139,443.20233,1144.1378C442.73322,1142.2367,443.28503,1138.8597,440.6801,1138.3655C439.07446,1138.0608,438.0692,1142.6716,439.049,1144.6614C440.81348,1148.2449,443.26697,1145.9943,445.23517,1147.9391C445.64587,1148.3451,445.71185,1148.6918,445.59515,1149.3075C445.43945,1150.1271,443.82812,1149.9491,443.55493,1151.3878C443.32007,1152.6239,445.0373,1152.9672,444.84814,1153.964C444.61023,1155.2167,442.91144,1155.368,441.9306,1155.6022C438.175,1156.4985,438.2046,1155.582,435.18945,1155.0095C434.79895,1154.9353,434.31177,1155.5464,434.1231,1156.2922L434.06305,1156.6089C433.95392,1157.469,434.28265,1158.4021,435.59485,1158.6514C438.74408,1159.249,439.93048,1158.47,442.46472,1157.233C443.1706,1156.889,444.347,1156.1478,445.11536,1156.048C447.40466,1155.7496,448.69434,1157.8912,445.96075,1158.3063C444.37354,1158.5468,442.5362,1159.3063,443.03113,1161.3075C443.1446,1161.7662,443.3222,1161.9008,443.86963,1162.0048C445.18652,1162.2548,445.95343,1160.3436,447.29034,1160.5973C448.00122,1160.7323,448.6045,1161.6188,448.46967,1162.3297C448.099,1164.2833,445.55322,1166.2609,446.5443,1167.9039C447.04877,1168.7399,448.31213,1168.9928,449.19647,1168.643C449.7475,1168.4249,450.73224,1167.0223,450.8853,1166.2157C451.02972,1165.4552,450.58142,1164.5004,450.6681,1163.9586C450.75702,1163.4003,451.8039,1162.8256,452.33252,1162.9257C453.24817,1163.0995,452.9225,1163.8605,454.16675,1164.0968C455.57825,1164.3646,455.64642,1162.3212,457.45508,1162.6644C458.3766,1162.8392,458.1596,1169.7094,457.87183,1170.6888C457.29755,1172.6434,459.89337,1171.247,459.64673,1170.1698C459.5271,1169.6488,459.3955,1169.4135,459.23376,1168.943C458.50415,1166.8197,459.75153,1166.4569,460.09015,1164.673L460.09003,1164.673C460.26447,1163.7548,459.68268,1161.9904,461.09668,1162.2589C461.55048,1162.3448,462.18835,1163.6254,462.34778,1164.0575C462.91394,1165.5912,462.4165,1167.6798,462.50378,1169.2516C462.65436,1171.9552,465.21045,1171.6434,465.7569,1168.7653C465.9555,1167.7189,465.8178,1166.5531,465.52698,1165.8104C464.85126,1164.0868,463.27014,1163.5431,462.58167,1161.5936C462.4679,1161.2714,462.2351,1160.5878,462.35175,1160.1764C462.4663,1159.7726,463.10284,1159.4865,463.52704,1159.567C464.57764,1159.7667,466.88666,1162.83,467.77484,1161.226C469.00195,1159.0106,463.9671,1159.4161,464.2256,1158.0546C464.52307,1156.4879,472.07404,1157.6556,473.0265,1157.4418C474.1302,1157.1937,474.77985,1156.5499,475.07416,1155.7982L475.26404,1154.7958C475.27026,1154.203,475.10016,1153.618,474.79535,1153.1622 Z"/>
</g>
<g style="fill:rgb(255,255,255); fill-opacity:1.0; stroke-linejoin: miter">
<path d="M492.91888,1170.8136C492.59973,1170.3365,492.14374,1170.0238,491.40698,1169.8842C490.15063,1169.6456,489.34607,1170.412,488.63666,1171.0621C487.9541,1171.6881,487.04816,1172.67,486.07172,1172.7103L485.94684,1172.5646C484.9511,1171.1149,486.86523,1170.152,488.3581,1169.8065C489.26434,1169.597,491.22528,1169.3964,491.44354,1168.246C491.56146,1167.6254,491.1319,1166.7448,490.60156,1166.517C489.93073,1166.2291,489.28186,1166.7777,488.81665,1167.0953C488.18127,1167.5287,487.89874,1167.7997,487.3379,1168.3085C486.63562,1168.9457,486.27393,1169.5953,485.32605,1169.4156C484.00018,1169.164,484.9754,1166.9293,485.135,1166.0887C483.05676,1164.0421,483.24188,1166.5763,481.9157,1166.4374C481.47064,1165.6383,484.56982,1160.7906,485.14484,1160.0106C486.25348,1158.507,488.79572,1156.1959,489.11664,1154.5055C489.287,1153.609,488.99103,1153.0953,488.50806,1152.8817L487.88556,1152.7633C487.43256,1152.7665,486.9314,1152.931,486.5111,1153.2169C485.0561,1154.2084,483.9228,1159.432,482.46906,1162.1727C479.9414,1166.9388,479.4856,1164.0724,479.63916,1163.2628C479.87634,1162.015,482.51294,1158.4613,480.22192,1158.0265C478.45892,1157.6915,478.22913,1157.6906,477.8853,1159.5023C477.6554,1160.7125,478.56177,1161.716,478.36615,1162.747C478.04047,1164.462,475.54346,1166.2665,475.7127,1158.4467C475.73645,1157.3478,476.68195,1152.5558,475.01404,1152.2389C474.2151,1152.0873,473.78412,1152.9398,473.65387,1153.6259C473.53333,1154.2611,473.8131,1155.1945,473.94055,1155.7352C474.29382,1157.234,475.72498,1162.1012,474.2312,1163.2838C472.92407,1164.3185,472.85315,1161.6368,472.61932,1160.7833C472.44012,1160.129,472.16278,1159.1276,471.31775,1159.1459C469.47168,1159.1864,470.88666,1161.3092,469.67865,1162.004C468.41827,1162.7289,466.90924,1161.3722,466.94073,1159.3492C466.96417,1157.8529,467.61627,1156.045,465.9867,1155.7355C462.82074,1155.1342,464.63184,1159.4694,465.23096,1160.744C465.8344,1162.0272,466.43884,1163.5463,464.79736,1164.32C463.56323,1164.902,461.57306,1162.7902,461.32587,1161.7892C460.8567,1159.8878,461.40857,1156.5111,458.8036,1156.0167C457.19794,1155.712,456.19275,1160.3229,457.1725,1162.3126C458.93695,1165.8961,461.3905,1163.6456,463.3587,1165.5905C463.7694,1165.9967,463.8355,1166.3431,463.7187,1166.9589C463.56305,1167.7784,461.95166,1167.6005,461.67853,1169.0392C461.44366,1170.2753,463.16077,1170.6185,462.97174,1171.6154C462.73383,1172.868,461.03503,1173.0194,460.05408,1173.2535C456.29846,1174.1498,456.32806,1173.2333,453.313,1172.6608C452.9225,1172.5865,452.43524,1173.1976,452.24658,1173.9435L452.18658,1174.2601C452.0774,1175.1202,452.40607,1176.0533,453.71838,1176.3024C456.8675,1176.9003,458.05402,1176.121,460.58826,1174.8844C461.2942,1174.5404,462.47052,1173.7992,463.23895,1173.6993C465.52832,1173.401,466.81787,1175.5426,464.0844,1175.9576C462.49707,1176.1981,460.65967,1176.9576,461.15472,1178.9589C461.2682,1179.4176,461.44574,1179.5521,461.99323,1179.6561C463.31012,1179.9061,464.07697,1177.995,465.41394,1178.2487C466.12476,1178.3837,466.72815,1179.2704,466.59332,1179.9813C466.2226,1181.9349,463.67676,1183.9122,464.66797,1185.5553C465.1723,1186.3912,466.43567,1186.6442,467.32,1186.2943C467.87115,1186.0763,468.8559,1184.674,469.0089,1183.8671C469.15338,1183.1066,468.70496,1182.1517,468.79163,1181.61C468.88055,1181.0519,469.92743,1180.4769,470.45618,1180.5773C471.37183,1180.7511,471.04614,1181.5121,472.29034,1181.7484C473.70178,1182.016,473.77008,1179.9723,475.57867,1180.3158C476.50024,1180.4906,476.28326,1187.361,475.99536,1188.3402C475.42108,1190.295,478.01703,1188.8983,477.77032,1187.8212C477.65063,1187.3002,477.5191,1187.0651,477.35736,1186.5946C476.62775,1184.4711,477.87506,1184.1083,478.21375,1182.3243L478.21356,1182.3243C478.38806,1181.4061,477.80627,1179.642,479.22034,1179.9103C479.67407,1179.9965,480.31195,1181.277,480.47137,1181.7091C481.0376,1183.2426,480.54004,1185.3314,480.62744,1186.903C480.7779,1189.6066,483.33398,1189.2946,483.8805,1186.4166C484.0791,1185.3702,483.9414,1184.2042,483.65045,1183.4618C482.9748,1181.7382,481.39374,1181.1945,480.7052,1179.2452C480.59143,1178.9227,480.35876,1178.2391,480.47534,1177.828C480.58997,1177.4242,481.22638,1177.1378,481.65063,1177.2184C482.70117,1177.4178,485.01013,1180.4813,485.89844,1178.8773C487.1255,1176.6617,482.09058,1177.0673,482.34918,1175.7057C482.64655,1174.139,490.19757,1175.307,491.15002,1175.0931C492.25366,1174.8451,492.90344,1174.2013,493.1977,1173.4496L493.3875,1172.4471C493.39386,1171.8541,493.22375,1171.2694,492.91888,1170.8136 Z"/>
</g>
<g style="fill:rgb(255,255,255); fill-opacity:1.0; stroke-linejoin: miter">
<path d="M479.7547,1148.6967C479.4355,1148.2194,478.97955,1147.9069,478.24286,1147.7672C476.9865,1147.5287,476.1819,1148.295,475.4724,1148.945C474.78992,1149.5712,473.8839,1150.5531,472.90753,1150.5934L472.78265,1150.4476C471.78687,1148.9977,473.701,1148.0348,475.19385,1147.6896C476.10022,1147.4801,478.06104,1147.2794,478.27942,1146.1288C478.39734,1145.5082,477.96777,1144.6278,477.43738,1144.4C476.7666,1144.1119,476.11774,1144.6608,475.65247,1144.9784C475.0171,1145.4117,474.73462,1145.6825,474.17377,1146.1915C473.47137,1146.8285,473.10974,1147.4784,472.16187,1147.2987C470.836,1147.047,471.81116,1144.8124,471.9709,1143.9718C469.89264,1141.9252,470.07764,1144.4594,468.75153,1144.3204C468.30646,1143.5214,471.40558,1138.6737,471.9806,1137.8937C473.08923,1136.3898,475.63147,1134.0787,475.9525,1132.3883C476.12274,1131.4918,475.82678,1130.9784,475.3438,1130.7648L474.7213,1130.6466C474.2683,1130.6495,473.7672,1130.8138,473.347,1131.1C471.8919,1132.0914,470.75854,1137.3151,469.3048,1140.0558C466.77722,1144.8219,466.32147,1141.9554,466.47498,1141.1461C466.71222,1139.8981,469.3487,1136.3444,467.0578,1135.9095C465.29468,1135.5746,465.06494,1135.5736,464.7212,1137.3854C464.4912,1138.5958,465.39752,1139.599,465.2019,1140.63C464.87628,1142.3451,462.37915,1144.1493,462.5484,1136.3297C462.57227,1135.2308,463.51776,1130.4388,461.84973,1130.1217C461.05084,1129.9701,460.6198,1130.8226,460.48956,1131.5089C460.36914,1132.1439,460.6488,1133.0773,460.77637,1133.618C461.12958,1135.1168,462.56073,1139.984,461.06702,1141.1666C459.75983,1142.2013,459.68884,1139.5197,459.45502,1138.6664C459.27594,1138.0118,458.99847,1137.0104,458.15356,1137.0287C456.30743,1137.069,457.7224,1139.192,456.5144,1139.8868C455.25403,1140.6117,453.74493,1139.255,453.7765,1137.232C453.79993,1135.736,454.45203,1133.9276,452.8224,1133.6183C449.65656,1133.0172,451.4676,1137.3522,452.0667,1138.6266C452.6701,1139.91,453.2746,1141.4291,451.63312,1142.203C450.39905,1142.7848,448.4088,1140.6732,448.16168,1139.6722C447.69257,1137.7709,448.2444,1134.3942,445.6394,1133.8995C444.03375,1133.5948,443.0285,1138.2057,444.00824,1140.1954C445.7727,1143.7792,448.22632,1141.5287,450.19452,1143.4733C450.60522,1143.8795,450.6712,1144.226,450.55444,1144.8417C450.39886,1145.6615,448.78748,1145.4835,448.51428,1146.9222C448.27954,1148.1583,449.99664,1148.5016,449.8075,1149.4984C449.56958,1150.7511,447.8708,1150.9022,446.88995,1151.1366C443.13428,1152.0326,443.16388,1151.1161,440.1488,1150.544C439.7583,1150.4697,439.27112,1151.0806,439.08246,1151.8267L439.0224,1152.1433C438.91327,1153.0034,439.242,1153.9363,440.5542,1154.1855C443.7033,1154.7833,444.88977,1154.004,447.42407,1152.7675C448.12994,1152.4235,449.30634,1151.6823,450.0747,1151.5822C452.364,1151.284,453.6537,1153.4254,450.9201,1153.8405C449.33282,1154.0812,447.49554,1154.8407,447.99048,1156.8417C448.10394,1157.3004,448.28156,1157.4349,448.82898,1157.539C450.14587,1157.789,450.91278,1155.8778,452.2497,1156.1315C452.9605,1156.2665,453.56384,1157.1532,453.42902,1157.8639C453.05835,1159.8177,450.51257,1161.795,451.50366,1163.4381C452.00812,1164.2743,453.27148,1164.5272,454.15582,1164.1774C454.70685,1163.9594,455.6916,1162.5565,455.84467,1161.7499C455.98907,1160.9896,455.5407,1160.0345,455.62738,1159.4928C455.71637,1158.9347,456.76324,1158.3597,457.29187,1158.4601C458.20758,1158.6339,457.88184,1159.3949,459.1261,1159.631C460.5376,1159.8988,460.60577,1157.8553,462.41443,1158.1986C463.33594,1158.3737,463.11896,1165.2438,462.83118,1166.2233C462.2569,1168.1779,464.85278,1166.7814,464.60608,1165.7042C464.4865,1165.1832,464.35492,1164.9479,464.19318,1164.4777C463.4635,1162.3539,464.71094,1161.9913,465.04956,1160.2074L465.04938,1160.2074C465.22382,1159.2892,464.6421,1157.525,466.0561,1157.7933C466.5099,1157.8795,467.14777,1159.1598,467.30713,1159.5922C467.87335,1161.1256,467.37592,1163.2142,467.4632,1164.786C467.6137,1167.4896,470.16974,1167.1776,470.71625,1164.2997C470.91486,1163.253,470.77716,1162.0873,470.48633,1161.3448C469.8106,1159.6212,468.2295,1159.0775,467.54102,1157.1283C467.42725,1156.8058,467.19452,1156.1222,467.31116,1155.7108C467.42572,1155.3073,468.06226,1155.0211,468.48645,1155.1014C469.537,1155.3009,471.846,1158.3644,472.7342,1156.7601C473.9613,1154.5448,468.92645,1154.9503,469.18494,1153.5887C469.48236,1152.0221,477.0334,1153.1901,477.98584,1152.976C479.08954,1152.7279,479.73914,1152.0844,480.0335,1151.3324L480.2234,1150.3302C480.2296,1149.7372,480.0595,1149.1525,479.7547,1148.6967 Z"/>
</g>
<g style="fill:rgb(0,0,0); fill-opacity:1.0; stroke-linejoin: miter">
<path d="M442.67944,1220.7086L442.67944,1220.7086L442.67944,1220.7089L442.67944,1220.7086"/>
</g>
<g style="fill:rgb(255,255,255); fill-opacity:1.0; stroke-linejoin: miter">
<path d="M377.11908,1239.8628L377.11902,1239.8628L377.1189,1239.863L377.11908,1239.8628"/>
</g>
<g style="fill:rgb(255,255,255); fill-opacity:1.0; stroke-linejoin: miter">
<path d="M478.92688,1130.6078C478.6078,1130.1307,478.15173,1129.8182,477.4151,1129.6783C476.1587,1129.4398,475.3542,1130.2064,474.64465,1130.8563C473.96222,1131.4825,473.05615,1132.4642,472.07977,1132.5048L471.9549,1132.359C470.9591,1130.909,472.8733,1129.9462,474.3661,1129.601C475.2724,1129.3912,477.23334,1129.1908,477.4516,1128.0399C477.56952,1127.4196,477.14,1126.5392,476.60962,1126.3112C475.93884,1126.0233,475.28998,1126.5721,474.8247,1126.8898C474.1894,1127.3229,473.90686,1127.5939,473.346,1128.1029C472.64362,1128.7399,472.28204,1129.3898,471.33417,1129.2098C470.00824,1128.9581,470.98346,1126.7238,471.14313,1125.8832C469.06488,1123.8365,469.24994,1126.3707,467.9237,1126.2318C467.47876,1125.4327,470.57788,1120.5848,471.15283,1119.8048C472.26154,1118.3011,474.8037,1115.9901,475.12476,1114.2997C475.29504,1113.4032,474.99902,1112.8895,474.5161,1112.6761L473.89362,1112.5577C473.4406,1112.5609,472.9394,1112.7252,472.51917,1113.0114C471.06415,1114.0026,469.93085,1119.2262,468.47705,1121.9672C465.94952,1126.733,465.4937,1123.8668,465.64716,1123.0573C465.8844,1121.8092,468.52094,1118.2557,466.23004,1117.8209C464.46692,1117.486,464.23724,1117.485,463.89337,1119.2968C463.66345,1120.507,464.56976,1121.5101,464.37415,1122.5414C464.04846,1124.2565,461.55145,1126.0607,461.7207,1118.2408C461.74445,1117.142,462.69,1112.35,461.02203,1112.0331C460.22308,1111.8815,459.7921,1112.7338,459.66187,1113.42C459.54138,1114.0553,459.82104,1114.9886,459.9486,1115.5294C460.30188,1117.028,461.73297,1121.8951,460.2392,1123.078C458.93207,1124.1127,458.86115,1121.431,458.62732,1120.5778C458.44818,1119.9232,458.17072,1118.9218,457.3258,1118.9401C455.47974,1118.9803,456.89465,1121.1034,455.6867,1121.7982C454.42633,1122.5231,452.91718,1121.1661,452.9488,1119.1434C452.97217,1117.6471,453.62433,1115.839,451.9947,1115.5294C448.82874,1114.9286,450.6399,1119.2633,451.23895,1120.538C451.8424,1121.8214,452.4469,1123.3402,450.80536,1124.1141C449.57123,1124.6962,447.58112,1122.5846,447.33392,1121.5834C446.8648,1119.6823,447.4167,1116.3055,444.81158,1115.8109C443.20593,1115.5062,442.2008,1120.1171,443.18054,1122.1068C444.945,1125.6903,447.39862,1123.4398,449.36682,1125.3846C449.77753,1125.7909,449.8435,1126.1373,449.72668,1126.753C449.5711,1127.5726,447.95978,1127.3947,447.68652,1128.8334C447.45172,1130.0695,449.16888,1130.4127,448.9798,1131.4095C448.74188,1132.6622,447.04303,1132.8136,446.06213,1133.048C442.30658,1133.944,442.33618,1133.0275,439.3211,1132.4553C438.9306,1132.3811,438.44336,1132.992,438.2547,1133.738L438.19464,1134.0544C438.08557,1134.9146,438.41425,1135.8477,439.7265,1136.0969C442.8756,1136.6947,444.062,1135.9154,446.59637,1134.6788C447.3022,1134.3346,448.47852,1133.5934,449.24695,1133.4935C451.53632,1133.1952,452.82593,1135.3368,450.0924,1135.7516C448.50513,1135.9923,446.6678,1136.7518,447.16272,1138.753C447.27625,1139.2118,447.45386,1139.3463,448.00128,1139.4501C449.31818,1139.7003,450.08502,1137.7892,451.422,1138.0428C452.13275,1138.1779,452.73615,1139.0643,452.60132,1139.7753C452.2306,1141.7291,449.6848,1143.7064,450.67596,1145.3495C451.1803,1146.1854,452.44373,1146.4384,453.32806,1146.0885C453.87915,1145.8705,454.86383,1144.4679,455.0169,1143.6613C455.16138,1142.9008,454.713,1141.9459,454.79968,1141.4042C454.88867,1140.8458,455.9355,1140.2711,456.4641,1140.3712C457.37982,1140.545,457.05408,1141.306,458.2984,1141.5424C459.70978,1141.8102,459.77808,1139.7665,461.58667,1140.11C462.50824,1140.2848,462.29126,1147.1549,462.00336,1148.1344C461.42914,1150.089,464.02502,1148.6927,463.77838,1147.6156C463.65875,1147.0946,463.52704,1146.859,463.3653,1146.3885C462.6358,1144.2653,463.88312,1143.9027,464.2218,1142.1188L464.22168,1142.1188C464.39612,1141.2006,463.81427,1139.4362,465.22833,1139.7047C465.68213,1139.7906,466.32,1141.0712,466.47943,1141.5033C467.0456,1143.037,466.5481,1145.1256,466.63544,1146.6974C466.786,1149.4008,469.34204,1149.089,469.8885,1146.2108C470.0871,1145.1644,469.94946,1143.9987,469.65857,1143.2562C468.98285,1141.5326,467.4018,1140.9889,466.71332,1139.0394C466.59955,1138.7172,466.36676,1138.0336,466.48346,1137.6222C466.59796,1137.2184,467.2345,1136.9323,467.65863,1137.0128C468.70923,1137.212,471.01825,1140.2758,471.90643,1138.6715C473.1336,1136.4562,468.0987,1136.8617,468.35724,1135.5001C468.65466,1133.9335,476.20563,1135.1012,477.15808,1134.8873C478.26178,1134.6393,478.91144,1133.9957,479.2057,1133.2438L479.39557,1132.2413C479.40186,1131.6486,479.23175,1131.0638,478.92688,1130.6078 Z"/>
</g>
<g style="fill:rgb(255,255,255); fill-opacity:1.0; stroke-linejoin: miter">
<path d="M484.4287,1141.2579C484.1095,1140.7809,483.65356,1140.4684,482.9168,1140.3287C481.66046,1140.0902,480.8559,1140.8566,480.14648,1141.5065C479.464,1142.1324,478.55798,1143.1144,477.58154,1143.1547L477.45673,1143.0092C476.46094,1141.5592,478.375,1140.5963,479.86792,1140.2511C480.77417,1140.0416,482.7351,1139.841,482.95337,1138.6903C483.0713,1138.0697,482.64172,1137.1893,482.1114,1136.9613C481.4406,1136.6735,480.7918,1137.2223,480.32654,1137.5399C479.6911,1137.9733,479.40857,1138.244,478.84784,1138.753C478.14545,1139.39,477.7838,1140.0397,476.83594,1139.86C475.51,1139.6083,476.48523,1137.3739,476.64496,1136.5333C474.5666,1134.4867,474.7517,1137.0209,473.42548,1136.882C472.98053,1136.0826,476.07965,1131.235,476.65466,1130.455C477.7633,1128.9513,480.30554,1126.6403,480.62646,1124.9498C480.7968,1124.0533,480.50073,1123.5399,480.01788,1123.3263L479.3954,1123.2079C478.94238,1123.211,478.44122,1123.3754,478.02094,1123.6615C476.56592,1124.6527,475.43262,1129.8763,473.97882,1132.6173C471.45123,1137.3832,470.99542,1134.517,471.149,1133.7074C471.38617,1132.4596,474.02277,1128.9059,471.73175,1128.4711C469.9687,1128.1361,469.739,1128.1351,469.39514,1129.9469C469.16528,1131.1571,470.0716,1132.1603,469.87598,1133.1915C469.5503,1134.9066,467.05328,1136.711,467.22253,1128.8912C467.24628,1127.7924,468.19177,1123.0001,466.52386,1122.6835C465.7249,1122.5319,465.29395,1123.3842,465.1637,1124.0704C465.04315,1124.7054,465.32294,1125.6388,465.45044,1126.1798C465.80365,1127.6786,467.2348,1132.5455,465.74103,1133.7284C464.4339,1134.7631,464.36298,1132.0812,464.12915,1131.2279C463.94995,1130.5736,463.6726,1129.5719,462.82758,1129.5902C460.98145,1129.6305,462.39642,1131.7535,461.18848,1132.4484C459.92804,1133.173,458.419,1131.8165,458.4505,1129.7936C458.47394,1128.2972,459.12604,1126.4891,457.49646,1126.1798C454.33057,1125.5785,456.1416,1129.9137,456.74072,1131.1881C457.34418,1132.4716,457.94867,1133.9906,456.30713,1134.7645C455.07306,1135.3463,453.0829,1133.2347,452.83563,1132.2338C452.36652,1130.3324,452.9184,1126.9557,450.31342,1126.461C448.70776,1126.1564,447.70258,1130.7672,448.6823,1132.757C450.44678,1136.3407,452.9004,1134.0902,454.8686,1136.0348C455.2793,1136.4408,455.34528,1136.7875,455.22845,1137.4032C455.07288,1138.223,453.4615,1138.045,453.18835,1139.4835C452.9535,1140.7196,454.67072,1141.0629,454.48157,1142.0599C454.24365,1143.3124,452.54486,1143.4637,451.5639,1143.6981C447.8083,1144.5941,447.8379,1143.6776,444.8228,1143.1051C444.4323,1143.0311,443.94513,1143.642,443.75647,1144.3881L443.6964,1144.7045C443.58722,1145.5648,443.91602,1146.4977,445.2282,1146.747C448.37732,1147.3448,449.56384,1146.5656,452.09808,1145.329C452.80402,1144.9847,453.98035,1144.2435,454.74878,1144.1437C457.0381,1143.8456,458.32776,1145.9869,455.59418,1146.402C454.0069,1146.6427,452.1695,1147.4022,452.66455,1149.4032C452.778,1149.8619,452.95557,1149.9965,453.50305,1150.1005C454.81995,1150.3505,455.58673,1148.4393,456.9237,1148.693C457.63452,1148.828,458.2379,1149.7145,458.1031,1150.4254C457.73242,1152.3793,455.18665,1154.3566,456.17773,1155.9996C456.68207,1156.8356,457.94543,1157.0885,458.82983,1156.7389C459.38092,1156.5206,460.36566,1155.118,460.51874,1154.3114C460.66315,1153.5509,460.21478,1152.5961,460.3014,1152.0543C460.39038,1151.4962,461.4372,1150.9213,461.96594,1151.0216C462.8816,1151.1954,462.5559,1151.9564,463.80017,1152.1927C465.2116,1152.4606,465.2799,1150.4169,467.0885,1150.7604C468.01007,1150.9352,467.7931,1157.8053,467.5052,1158.7848C466.9309,1160.7394,469.52686,1159.3429,469.28015,1158.2657C469.16058,1157.7448,469.02887,1157.5094,468.8672,1157.039C468.13757,1154.9156,469.3849,1154.5529,469.7235,1152.7689L469.7234,1152.7687C469.8979,1151.8507,469.31604,1150.0863,470.73016,1150.3549C471.18396,1150.441,471.82178,1151.7213,471.9812,1152.1534C472.54742,1153.6869,472.04987,1155.7758,472.13727,1157.3475C472.28772,1160.0509,474.8438,1159.7389,475.39032,1156.861C475.58893,1155.8146,475.45123,1154.6488,475.16028,1153.9064C474.48462,1152.1825,472.90356,1151.639,472.2151,1149.6896C472.10126,1149.3673,471.8686,1148.6837,471.98517,1148.2723C472.0998,1147.8688,472.73633,1147.5824,473.16046,1147.663C474.211,1147.8622,476.51996,1150.9257,477.40826,1149.3217C478.63538,1147.1061,473.6004,1147.5118,473.859,1146.1503C474.15637,1144.5836,481.7074,1145.7513,482.6598,1145.5375C483.7635,1145.2894,484.4132,1144.6456,484.70752,1143.8939L484.89734,1142.8915C484.9037,1142.2987,484.73358,1141.714,484.4287,1141.2579 Z"/>
</g>
<g style="fill:rgb(255,255,255); fill-opacity:1.0; stroke-linejoin: miter">
<path d="M494.58185,1150.6881C494.2627,1150.2108,493.8067,1149.8983,493.07007,1149.7587C491.8136,1149.5201,491.0091,1150.2865,490.29962,1150.9364C489.61713,1151.5626,488.71112,1152.5446,487.73474,1152.5846L487.60986,1152.4391C486.61407,1150.9891,488.5282,1150.0262,490.02106,1149.681C490.9273,1149.4716,492.88824,1149.2709,493.1065,1148.1202C493.22443,1147.4996,492.79498,1146.6193,492.2646,1146.3912C491.59375,1146.1034,490.94495,1146.6522,490.47968,1146.9698C489.8443,1147.4032,489.56177,1147.674,489.00098,1148.183C488.29858,1148.82,487.93695,1149.4696,486.98907,1149.2899C485.6632,1149.0382,486.63837,1146.8038,486.7981,1145.9633C484.71985,1143.9166,484.90485,1146.4508,483.5786,1146.3119C483.13367,1145.5128,486.2328,1140.6649,486.8078,1139.8849C487.91644,1138.3812,490.45868,1136.0702,490.77972,1134.3798C490.94995,1133.4833,490.65393,1132.9698,490.17102,1132.7562L489.54852,1132.6378C489.09552,1132.641,488.59436,1132.8053,488.17407,1133.0914C486.71906,1134.0826,485.58575,1139.3063,484.13196,1142.0472C481.60443,1146.8131,481.14868,1143.9469,481.30212,1143.1373C481.5393,1141.8893,484.17584,1138.3358,481.88495,1137.901C480.12183,1137.566,479.89215,1137.5651,479.54828,1139.3768C479.31842,1140.587,480.22473,1141.5902,480.0291,1142.6215C479.70343,1144.3365,477.20642,1146.1407,477.37567,1138.3209C477.3994,1137.2223,478.34497,1132.43,476.677,1132.1134C475.87805,1131.9615,475.44708,1132.8141,475.31683,1133.5001C475.19635,1134.1354,475.476,1135.0687,475.60358,1135.6095C475.95685,1137.1083,477.38794,1141.9755,475.89417,1143.1581C474.58704,1144.193,474.5161,1141.5111,474.2823,1140.6578C474.10315,1140.0035,473.82568,1139.0018,472.98077,1139.0201C471.1347,1139.0607,472.54962,1141.1835,471.34167,1141.8783C470.08118,1142.6031,468.57214,1141.2465,468.60376,1139.2235C468.62714,1137.7274,469.2793,1135.9193,467.64966,1135.6097C464.4837,1135.0087,466.29486,1139.3436,466.89392,1140.6183C467.49738,1141.9015,468.10187,1143.4205,466.46033,1144.1945C465.2262,1144.7765,463.23602,1142.6647,462.98877,1141.6637C462.51978,1139.7623,463.0716,1136.3856,460.46655,1135.891C458.8609,1135.5863,457.8557,1140.1971,458.83545,1142.1869C460.5999,1145.7706,463.05353,1143.5201,465.0218,1145.465C465.4325,1145.8712,465.49847,1146.2174,465.38165,1146.8331C465.22607,1147.653,463.6147,1147.475,463.3415,1148.9137C463.10663,1150.1498,464.82385,1150.493,464.63477,1151.4901C464.39685,1152.7426,462.698,1152.8937,461.71704,1153.128C457.9615,1154.024,457.9911,1153.1075,454.97595,1152.535C454.58545,1152.4608,454.09827,1153.0719,453.9096,1153.818L453.84955,1154.1346C453.74042,1154.9948,454.06915,1155.9276,455.38135,1156.1769C458.53052,1156.7745,459.71698,1155.9955,462.25128,1154.7589C462.95715,1154.4147,464.13348,1153.6737,464.90192,1153.5739C467.19128,1153.2755,468.4809,1155.4171,465.74738,1155.8319C464.1601,1156.0726,462.32275,1156.8322,462.8177,1158.8331C462.93115,1159.2919,463.10876,1159.4264,463.6562,1159.5304C464.97314,1159.7806,465.74,1157.8693,467.07697,1158.1232C467.78772,1158.2579,468.3911,1159.1447,468.2563,1159.8556C467.88556,1161.8092,465.33978,1163.7865,466.33093,1165.4298C466.83527,1166.2657,468.0987,1166.5187,468.98303,1166.1688C469.53412,1165.9508,470.5188,1164.5482,470.67188,1163.7413C470.81635,1162.9811,470.36798,1162.0262,470.45465,1161.4843C470.54364,1160.9261,471.59045,1160.3512,472.11908,1160.4518C473.0348,1160.6254,472.7091,1161.3864,473.95337,1161.6227C475.36475,1161.8903,475.43304,1159.8468,477.24164,1160.1903C478.1632,1160.3651,477.94623,1167.2352,477.65833,1168.2147C477.0841,1170.1693,479.68,1168.7726,479.4333,1167.6957C479.31372,1167.1747,479.182,1166.9393,479.02026,1166.4689C478.29077,1164.3456,479.53802,1163.9828,479.87677,1162.1986L479.87653,1162.1986C480.05103,1161.2804,479.46918,1159.5162,480.8833,1159.7845C481.3371,1159.8707,481.97498,1161.1512,482.13434,1161.5834C482.70056,1163.1171,482.203,1165.2057,482.2904,1166.7775C482.44092,1169.4808,484.99695,1169.1691,485.54346,1166.2909C485.74207,1165.2445,485.60437,1164.0787,485.31348,1163.3363C484.63782,1161.6124,483.0567,1161.069,482.36823,1159.1195C482.25446,1158.7972,482.02167,1158.1136,482.13837,1157.7023C482.25293,1157.2985,482.88947,1157.0123,483.3136,1157.0927C484.36414,1157.2921,486.67322,1160.3556,487.5614,1158.7516C488.7885,1156.536,483.75366,1156.9418,484.01215,1155.5802C484.30957,1154.0135,491.8606,1155.1815,492.81305,1154.9674C493.91675,1154.7194,494.56635,1154.0756,494.86066,1153.3239L495.05048,1152.3214C495.05682,1151.7286,494.88672,1151.1439,494.58185,1150.6881 Z"/>
</g>
<g style="fill:rgb(0,0,0); fill-opacity:1.0; stroke-linejoin: miter">
<path d="M515.0021,1106.7976L514.4,1107.9241Q513.9315,1109.1005,502.05795,1113.3057Q494.42606,1115.8235,482.48206,1118.9254Q448.21704,1127.4705,418.2236,1132.7177Q389.13852,1138.1078,361.0164,1140.8444Q349.972,1141.7217,345.622,1141.2202L343.1448,1140.7249Q341.4973,1139.8689,342.53708,1139.1395Q343.857,1137.5319,349.8493,1135.2394Q353.09702,1133.6938,371.99567,1128.4762Q394.58054,1122.4811,427.2088,1116.1606Q440.11887,1113.6023,464.3344,1109.7631Q477.70764,1107.7367,488.7177,1106.5625Q501.4752,1105.3333,502.64825,1105.4144Q506.43024,1105.2361,509.06357,1105.3304Q514.3302,1105.5189,515.0021,1106.7976"/>
</g>
<g style="fill:rgb(0,0,0); fill-opacity:1.0; stroke-linejoin: miter">
<path d="M515.1621,1106.3855L514.5495,1107.4569Q509.47372,1111.3125,482.5806,1118.1921Q455.49887,1125.1066,418.30667,1131.9036Q382.78482,1138.2507,361.129,1140.1843Q354.1891,1140.7979,349.62592,1140.8279L345.76144,1140.7003L343.29437,1140.2577L342.32922,1139.4885Q342.70386,1136.4288,366.7214,1129.8447Q390.73898,1123.2605,427.4466,1116.1544Q464.18207,1109.1938,488.93277,1106.4374Q513.6834,1103.6809,515.1621,1106.3855"/>
</g>
<g style="fill:rgb(255,176,144); fill-opacity:1.0; stroke-linejoin: miter">
<path d="M421.15195,1106.7383L421.20493,1106.4055Q421.48154,1104.2618,422.4159,1102.5618Q423.19366,1101.0656,426.2082,1097.6494L431.40588,1093.0088L433.16473,1091.7065Q435.62192,1090.077,437.0004,1090.476Q438.56213,1090.6243,441.7706,1093.8225L443.16617,1096.4102Q445.4891,1097.8384,447.00772,1099.3933Q447.68134,1100.0997,448.32574,1100.9646L451.38,1105.239Q452.2463,1106.3339,453.08142,1107.1129Q454.89697,1108.8315,457.8715,1110.1426L456.49826,1112.5912L457.58118,1113.5348Q456.18048,1115.3389,455.35092,1114.9569Q455.077,1114.8492,454.7338,1114.5199L453.98364,1113.6693Q454.0698,1113.6729,454.02197,1113.6111Q453.8719,1113.4897,453.7281,1113.4098Q447.1628,1109.9896,444.55038,1108.3684Q441.8458,1106.718,440.35568,1105.2075Q438.61215,1103.4526,437.43564,1100.9097Q436.9053,1102.5323,436.23022,1103.6945Q436.19556,1103.9327,433.49078,1107.392Q433.04428,1108.0331,432.47308,1109.2465Q430.85983,1110.1907,429.86685,1110.5181Q427.20532,1111.4413,423.81784,1109.9525Q421.0642,1108.8214,421.15195,1106.7383 Z"/>
</g>
<g style="fill:rgb(0,0,0); fill-opacity:1.0; stroke-linejoin: miter">
<path d="M438.47766,1054.9053Q436.7518,1054.5465,435.55383,1055.2373Q435.38403,1055.2814,433.78406,1056.4662Q431.8356,1057.472,431.70355,1057.6661Q430.99313,1058.2423,430.69733,1059.1586Q429.818,1062.1641,430.83444,1066.1649Q431.05582,1067.012,431.37433,1067.9187L433.43985,1069.6337Q437.934,1067.3499,439.5565,1065.6781Q440.3922,1064.862,441.12827,1063.6958Q441.57697,1063.0442,442.84323,1060.4777Q443.05533,1060.0883,443.2789,1059.7744Q443.78818,1059.0282,444.62854,1058.5995Q444.4222,1057.4607,442.96973,1056.6338Q440.76184,1055.3807,438.48517,1054.9071 Z"/>
</g>
<g style="fill:rgb(255,176,144); fill-opacity:1.0; stroke-linejoin: miter">
<path d="M443.17593,1059.498Q441.09464,1059.8448,440.76904,1060.3992Q440.42587,1060.8165,440.63266,1062.0071L439.46527,1063.0149L439.17908,1064.8871L438.2368,1064.963Q437.73535,1063.3922,437.44522,1063.0785Q437.1087,1062.6744,436.57312,1062.9572Q435.9244,1063.2928,435.67734,1063.8512Q435.4935,1064.2006,435.65277,1065.3157Q435.6265,1065.5204,435.4584,1065.7275Q435.251,1066.1061,432.59186,1068.0017L437.63092,1073.3456L439.8056,1071.8655L441.34277,1071.4546Q443.03088,1071.9087,443.3675,1071.5779Q443.77203,1071.3289,443.3818,1069.6853Q443.8769,1068.9188,443.84033,1068.6527Q443.84103,1068.3385,443.2905,1067.9943Q444.01367,1067.9403,444.1332,1067.6812Q444.30338,1067.4398,444.13785,1066.5062Q445.3919,1066.4474,445.32318,1066.0848Q445.3279,1065.9045,445.0765,1065.5284L443.80865,1063.8074L443.76633,1063.3092Q444.0229,1062.6912,443.9083,1062.0409Q443.8289,1061.4131,443.17914,1059.5067 Z"/>
</g>
<g style="fill:rgb(250,87,87); fill-opacity:0.07450981; stroke-linejoin: miter">
<path d="M438.05746,1068.9995L437.53992,1073.281L441.13397,1071.3875Q439.79984,1070.7097,439.22232,1070.2456Q438.66858,1069.8169,438.05988,1069.0027 Z"/>
</g>
<g style="fill:rgb(0,0,0); fill-opacity:0.99607843; stroke-linejoin: miter">
<path d="M444.46506,1061.141L444.46494,1061.141L444.46503,1061.1412L444.46506,1061.141 Z"/>
</g>
<g style="fill:rgb(255,176,144); fill-opacity:1.0; stroke-linejoin: miter">
<path d="M393.40942,1122.9248L393.4096,1122.9257L393.4098,1122.9265L394.80484,1127.3447L392.71686,1128.5481L390.573,1129.922C389.8378,1130.6232,389.2317,1131.0759,388.761,1131.294C388.49905,1131.4153,388.22308,1131.5297,387.91827,1131.5812C386.86963,1131.7584,386.30008,1131.8435,386.21442,1131.8728C385.84222,1131.9998,385.59137,1132.0927,385.47632,1132.1757C385.1769,1132.3917,384.97537,1132.6482,384.8321,1132.9136C384.73846,1133.0869,384.494,1133.6383,384.12463,1134.5822L383.91437,1134.9718C383.75543,1135.2222,383.55673,1135.406,383.30652,1135.4913C382.6759,1135.7062,382.464,1134.7256,381.82712,1134.2053C381.638,1134.0509,380.96158,1134.0322,380.61182,1132.528C380.33432,1131.3344,380.2174,1130.4696,380.2671,1129.9236C380.32385,1129.2997,380.47314,1128.7217,380.78735,1128.2191C381.15808,1127.6261,381.71466,1127.0458,382.41238,1126.4492C382.78482,1126.1309,383.13757,1125.7695,383.5677,1125.5044C384.54663,1124.9009,385.16928,1124.556,385.35068,1124.3241L385.5708,1124.0067C385.75232,1123.383,385.8553,1123.0608,385.87976,1123.0398C385.97168,1122.8699,386.11447,1122.675,386.33636,1122.487C386.65863,1122.2141,386.9541,1122.0403,387.2053,1121.961C387.81943,1121.7671,388.28552,1121.7166,388.5973,1121.7206C389.40884,1121.7311,390.88284,1122.0447,393.01917,1122.7212L393.01935,1122.722L393.40942,1122.9248 Z"/>
</g>
<g style="fill:rgb(255,176,144); fill-opacity:1.0; stroke-linejoin: miter">
<path d="M416.10178,1082.7378L415.6648,1082.9901Q411.65924,1085.2919,410.68686,1086.0608Q410.33325,1086.312,409.701,1086.8737Q407.99976,1088.5195,407.65836,1088.8074Q407.18896,1089.2241,406.71265,1089.5564Q406.11325,1090.025,405.1133,1090.2452Q404.26608,1090.5142,400.40878,1089.738L398.2379,1087.9756L398.73703,1086.3192L400.52783,1085.3315L401.53845,1085.426L402.36005,1085.2261L403.17834,1085.8538L403.29053,1086.5425L405.1376,1087.1434L408.7398,1082.5536L409.8169,1081.2308Q411.31268,1079.4705,412.28235,1078.7521Q413.18622,1077.9822,415.15762,1077.1074Q416.62915,1076.4576,420.54694,1075.2273L416.10178,1082.7378 Z"/>
</g>
<g style="fill:rgb(0,0,0); fill-opacity:1.0; stroke-linejoin: miter">
<path d="M409.9402,1097.1534L409.88022,1097.0167Q409.43256,1096.1536,409.7687,1095.2742Q411.59683,1092.0962,411.96393,1091.1215L415.2881,1082.447Q416.2411,1080.2197,416.67285,1079.5275Q417.90363,1076.7898,423.63895,1071.9106Q426.6882,1069.2819,427.9655,1068.7986Q429.51428,1068.1595,431.9366,1068.0128L433.164,1067.5271L437.75183,1073.3281L436.33743,1074.345Q436.7717,1075.0813,436.63232,1075.5109Q436.58588,1075.7665,436.1786,1076.3799Q434.76184,1081.5654,434.11908,1083.4038Q433.40704,1085.4321,432.9773,1086.1858Q432.58295,1087.0278,431.56137,1088.3053Q430.87698,1089.168,428.87595,1091.0515Q428.0643,1092.5027,427.63992,1092.9899Q427.51968,1093.2202,426.14923,1094.4158L425.76935,1094.8818Q425.17917,1095.8464,425.0796,1097.9283L409.9402,1097.1534 Z"/>
</g>
<g style="fill:rgb(255,176,144); fill-opacity:1.0; stroke-linejoin: miter">
<path d="M420.04562,1103.4828L420.2548,1103.747Q421.64584,1105.4012,422.26514,1107.2396Q422.84045,1108.825,423.31552,1113.356L423.21506,1120.3234L422.98367,1122.4995Q422.5202,1125.4113,421.29388,1126.1562Q420.12775,1127.2057,415.60165,1127.4034L412.75214,1126.6797Q410.1287,1127.4236,407.95602,1127.4891Q406.9802,1127.5072,405.90762,1127.3965L400.69345,1126.7522Q399.30103,1126.6493,398.1624,1126.7369Q395.66833,1126.9104,392.69022,1128.2133L391.81656,1125.545L390.3892,1125.704Q390.00885,1123.452,390.8514,1123.0995Q391.11597,1122.9707,391.59076,1122.941L392.72476,1122.9642Q392.66382,1123.0253,392.74176,1123.0319Q392.9326,1123.0034,393.08905,1122.9518Q400.04968,1120.4327,403.01132,1119.6064Q406.05667,1118.732,408.17715,1118.6572Q410.64896,1118.561,413.3174,1119.4156Q412.48178,1117.9274,412.083,1116.6438Q411.93094,1116.4573,411.21478,1112.1251Q411.04468,1111.3623,410.53806,1110.1207Q410.9343,1108.2936,411.36533,1107.3412Q412.487,1104.7571,415.8753,1103.2705Q418.57153,1102.0084,420.04562,1103.4828 Z"/>
</g>
<g style="fill:rgb(255,255,255); fill-opacity:1.0; stroke-linejoin: miter">
<path d="M410.5335,1110.523L410.351,1110.1593Q408.45093,1106.7446,408.42838,1103.4309Q408.38257,1102.3156,408.61017,1100.9629Q408.67175,1100.4784,409.22742,1099.0609L409.3247,1098.6022Q409.40558,1098.1389,409.26373,1096.9545Q409.74625,1096.4963,409.94333,1096.3418Q410.7908,1095.6147,412.16156,1095.225Q414.04065,1094.7506,415.5116,1094.886Q416.51315,1094.9192,418.2516,1095.4976Q420.2925,1096.2543,421.838,1097.0112Q422.5735,1097.3019,422.86816,1097.354Q423.9596,1097.5819,425.26752,1097.247L425.16638,1097.9178L426.18762,1097.4774Q426.20972,1098.9122,426.2771,1099.8507L426.7677,1105.9039Q426.87933,1107.8998,426.9233,1110.6915L423.06158,1112.3335Q422.85962,1108.7079,421.17896,1105.8258Q419.78418,1103.5514,417.55627,1103.5256Q414.936,1103.5946,413.07684,1105.4924Q411.486,1107.0969,410.5335,1110.523 Z"/>
</g>
<g style="fill:rgb(255,176,144); fill-opacity:1.0; stroke-linejoin: miter">
<path d="M435.171,1076.7417L435.5389,1076.7114Q437.88312,1076.4977,438.7232,1076.6802Q439.46384,1076.6523,447.78717,1079.0627L454.2323,1079.6726Q457.34964,1078.7457,458.12476,1078.6837Q459.50427,1078.5115,459.9326,1078.7346Q460.55994,1078.98,460.8715,1079.5201Q461.12817,1079.9043,461.42896,1080.898L462.02274,1082.051L463.1301,1082.1508L463.06308,1083.0414L462.00107,1083.5173L460.66312,1085.0305L458.79532,1085.557L458.37402,1084.7653L457.7317,1085.2928L457.0576,1084.4291Q456.1296,1084.3954,455.6149,1084.226Q455.00336,1083.9999,454.4635,1083.3582Q452.37854,1082.7178,451.83508,1082.7249Q450.81735,1082.6586,449.8122,1082.7996Q448.75574,1082.9073,445.3253,1083.5491L442.21008,1083.7991Q439.62112,1084.0377,437.18387,1083.6552L432.0089,1081.488L435.171,1076.7417 Z"/>
</g>
<g style="fill:rgb(255,255,255); fill-opacity:1.0; stroke-linejoin: miter">
<path d="M425.5239,1097.79L430.55432,1093.7523Q431.7866,1099.3708,431.96954,1101.3115Q432.1329,1102.3865,432.1098,1104.3081Q432.12442,1104.7681,431.8636,1107.3949Q431.81372,1108.2705,431.839,1108.4036Q431.9182,1109.7847,432.59567,1111.1842L423.48843,1112.0624L425.5239,1097.79"/>
</g>
<g style="fill:rgb(255,255,255); fill-opacity:1.0; stroke-linejoin: miter">
<path d="M423.16483,1107.6115L424.4787,1115.2825Q418.8681,1117.41,417.6249,1117.4653Q416.93085,1117.5331,416.5472,1117.389L415.3072,1116.7638Q415.24225,1116.703,414.52554,1116.614Q413.68335,1116.4974,410.48248,1116.9023L408.7022,1104.4537L417.29178,1100.0859L423.16483,1107.6115"/>
</g>
<g style="fill:rgb(255,176,144); fill-opacity:1.0; stroke-linejoin: miter">
<path d="M453.8556,1113.5684L453.85596,1113.5677L453.85626,1113.567L454.86713,1109.9207L456.8324,1110.0256L458.91187,1110.0391C459.7273,1109.8857,460.3438,1109.8457,460.76318,1109.9058C460.99652,1109.9395,461.23633,1109.9836,461.46802,1110.084C462.26495,1110.4294,462.69287,1110.6248,462.76465,1110.6425C463.07587,1110.7212,463.289,1110.7693,463.40472,1110.7635C463.70593,1110.7488,463.958,1110.6628,464.17426,1110.5452C464.31543,1110.4679,464.72833,1110.1993,465.40118,1109.717L465.7185,1109.5442C465.9389,1109.4434,466.15668,1109.4059,466.36603,1109.459C466.89343,1109.5923,466.60223,1110.3582,466.80682,1110.9977C466.86755,1111.1875,467.3225,1111.5016,466.89252,1112.6871C466.55145,1113.6282,466.2467,1114.2722,465.96973,1114.624C465.65338,1115.0261,465.29376,1115.3553,464.85492,1115.5596C464.33716,1115.8007,463.69788,1115.9503,462.9546,1116.0485C462.55792,1116.1008,462.15558,1116.1909,461.74304,1116.1813C460.8042,1116.1592,460.22424,1116.1184,459.99683,1116.1963L459.7049,1116.3158C459.30298,1116.6621,459.0891,1116.8367,459.06305,1116.8403C458.92444,1116.9158,458.74,1116.9856,458.50446,1117.0156C458.16223,1117.0591,457.88257,1117.0469,457.6753,1116.989C457.16852,1116.8486,456.82684,1116.6759,456.61523,1116.5342C456.06403,1116.1661,455.19427,1115.2952,454.0323,1113.8813L454.0326,1113.8806L453.8556,1113.5684 Z"/>
</g>
<g style="fill:rgb(0,0,0); fill-opacity:1.0; stroke-linejoin: miter">
<path d="M446.6895,1033.9038L401.33743,1094.821L355.98535,1155.7383L446.6895,1033.9038"/>
</g>
</g>
</svg>